<svg xmlns="http://www.w3.org/2000/svg" style="display:none">
  <symbol id="icon-landscape" viewBox="0 0 24 24">
    <!-- ground -->
    <path d="M1 20h22" fill="none" stroke="currentColor" stroke-width="1.55" stroke-linecap="round"/>
    <!-- house walls -->
    <path d="M3 20v-8h10v8" fill="none" stroke="currentColor" stroke-width="1.55" stroke-linecap="round" stroke-linejoin="round"/>
    <!-- roof -->
    <path d="M1 12l7-7 7 7" fill="none" stroke="currentColor" stroke-width="1.55" stroke-linecap="round" stroke-linejoin="round"/>
    <!-- door -->
    <path d="M6.5 20v-4h3v4" fill="none" stroke="currentColor" stroke-width="1.4" stroke-linecap="round" stroke-linejoin="round"/>
    <!-- tree trunk -->
    <path d="M19 20v-6" fill="none" stroke="currentColor" stroke-width="1.55" stroke-linecap="round"/>
    <!-- tree canopy -->
    <circle cx="19" cy="11" r="3.2" fill="none" stroke="currentColor" stroke-width="1.55"/>
  </symbol>
  <symbol id="icon-design" viewBox="0 0 24 24">
    <!-- page with folded corner -->
    <path d="M4 3h12l4 5v13H4z" fill="none" stroke="currentColor" stroke-width="1.6" stroke-linecap="round" stroke-linejoin="round"/>
    <!-- fold -->
    <path d="M16 3v5h4" fill="none" stroke="currentColor" stroke-width="1.6" stroke-linecap="round" stroke-linejoin="round"/>
    <!-- floor plan lines inside -->
    <path d="M7 11h10v8H7z" fill="none" stroke="currentColor" stroke-width="1.35" stroke-linecap="round" stroke-linejoin="round"/>
    <path d="M7 15h5M12 11v4" fill="none" stroke="currentColor" stroke-width="1.35" stroke-linecap="round"/>
  </symbol>
  <symbol id="icon-nursery" viewBox="0 0 24 24">
    <!-- pot rim -->
    <path d="M6 14h12" fill="none" stroke="currentColor" stroke-width="1.55" stroke-linecap="round"/>
    <!-- pot body -->
    <path d="M8 14l1 6h6l1-6" fill="none" stroke="currentColor" stroke-width="1.55" stroke-linecap="round" stroke-linejoin="round"/>
    <!-- stem -->
    <path d="M12 14V8" fill="none" stroke="currentColor" stroke-width="1.55" stroke-linecap="round"/>
    <!-- left leaf -->
    <path d="M12 10c0-3-3-4.5-4.5-2.5 1.5 2 4.5 2.5 4.5 2.5z" fill="none" stroke="currentColor" stroke-width="1.55" stroke-linecap="round" stroke-linejoin="round"/>
    <!-- right leaf -->
    <path d="M12 10c0-3 3-4.5 4.5-2.5-1.5 2-4.5 2.5-4.5 2.5z" fill="none" stroke="currentColor" stroke-width="1.55" stroke-linecap="round" stroke-linejoin="round"/>
  </symbol>
  <symbol id="icon-phone" viewBox="0 0 24 24">
    <path d="M6 3h4l2 5-2.5 2.5a14 14 0 0 0 4 4L16 12l5 2v4a2 2 0 0 1-2 2A16 16 0 0 1 3 5a2 2 0 0 1 2-2Z" fill="none" stroke="currentColor" stroke-width="1.7" stroke-linecap="round" stroke-linejoin="round"/>
  </symbol>
  <symbol id="icon-mail" viewBox="0 0 24 24">
    <path d="M3 6h18v12H3zM3 7l9 7 9-7" fill="none" stroke="currentColor" stroke-width="1.7" stroke-linecap="round" stroke-linejoin="round"/>
  </symbol>
  <symbol id="icon-map" viewBox="0 0 24 24">
    <path d="M12 21s7-6 7-11a7 7 0 1 0-14 0c0 5 7 11 7 11Zm0-8a3 3 0 1 0 0-6 3 3 0 0 0 0 6Z" fill="none" stroke="currentColor" stroke-width="1.7" stroke-linecap="round" stroke-linejoin="round"/>
  </symbol>
  <symbol id="icon-clock" viewBox="0 0 24 24">
    <circle cx="12" cy="12" r="9" fill="none" stroke="currentColor" stroke-width="1.7"/>
    <path d="M12 7v6l4 2" fill="none" stroke="currentColor" stroke-width="1.7" stroke-linecap="round" stroke-linejoin="round"/>
  </symbol>
  <symbol id="icon-search" viewBox="0 0 24 24">
    <circle cx="11" cy="11" r="7" fill="none" stroke="currentColor" stroke-width="1.8"/>
    <path d="m20 20-3.5-3.5" fill="none" stroke="currentColor" stroke-width="1.8" stroke-linecap="round"/>
  </symbol>
  <symbol id="icon-cart" viewBox="0 0 24 24">
    <path d="M3 4h2l2 11h11l2-8H6M9 20a1 1 0 1 0 0 .1M17 20a1 1 0 1 0 0 .1" fill="none" stroke="currentColor" stroke-width="1.7" stroke-linecap="round" stroke-linejoin="round"/>
  </symbol>
  <symbol id="icon-download" viewBox="0 0 24 24">
    <path d="M12 4v10m0 0 4-4m-4 4-4-4M4 20h16" fill="none" stroke="currentColor" stroke-width="1.8" stroke-linecap="round" stroke-linejoin="round"/>
  </symbol>
  <symbol id="icon-printer" viewBox="0 0 24 24">
    <path d="M7 8V4h10v4M6 17H4V10a2 2 0 0 1 2-2h12a2 2 0 0 1 2 2v7h-2" fill="none" stroke="currentColor" stroke-width="1.7" stroke-linecap="round" stroke-linejoin="round"/>
    <path d="M7 14h10v6H7z" fill="none" stroke="currentColor" stroke-width="1.7" stroke-linejoin="round"/>
    <circle cx="17.3" cy="11.2" r="1" fill="currentColor"/>
  </symbol>
  <symbol id="icon-height" viewBox="0 0 24 24">
    <path d="M12 4v16M8 8l4-4 4 4M8 16l4 4 4-4" fill="none" stroke="currentColor" stroke-width="1.7" stroke-linecap="round" stroke-linejoin="round"/>
  </symbol>
  <symbol id="icon-width" viewBox="0 0 24 24">
    <path d="M4 12h16M8 8l-4 4 4 4M16 8l4 4-4 4" fill="none" stroke="currentColor" stroke-width="1.7" stroke-linecap="round" stroke-linejoin="round"/>
  </symbol>
  <symbol id="icon-flower" viewBox="0 0 24 24">
    <path d="M12 12c3 0 5.5 2.5 5.5 5.5-3 0-5.5-2.5-5.5-5.5Zm0 0c0-3 2.5-5.5 5.5-5.5 0 3-2.5 5.5-5.5 5.5Zm0 0c-3 0-5.5-2.5-5.5-5.5 3 0 5.5 2.5 5.5 5.5Zm0 0c0 3-2.5 5.5-5.5 5.5 0-3 2.5-5.5 5.5-5.5Z" fill="none" stroke="currentColor" stroke-width="1.4" stroke-linejoin="round"/>
    <circle cx="12" cy="12" r="1.7" fill="currentColor"/>
  </symbol>
  <symbol id="icon-soil" viewBox="0 0 24 24">
    <path d="M3 18h18M5 14h14M7 10h10" fill="none" stroke="currentColor" stroke-width="1.7" stroke-linecap="round"/>
  </symbol>
  <symbol id="icon-sun" viewBox="0 0 24 24">
    <circle cx="12" cy="12" r="4" fill="none" stroke="currentColor" stroke-width="1.7"/>
    <path d="M12 2v3M12 19v3M2 12h3M19 12h3M4.9 4.9l2.2 2.2M16.9 16.9l2.2 2.2M19.1 4.9l-2.2 2.2M7.1 16.9l-2.2 2.2" fill="none" stroke="currentColor" stroke-width="1.7" stroke-linecap="round"/>
  </symbol>
  <symbol id="icon-calendar" viewBox="0 0 24 24">
    <rect x="3" y="5" width="18" height="16" rx="2" fill="none" stroke="currentColor" stroke-width="1.7"/>
    <path d="M3 10h18M8 3v4M16 3v4" fill="none" stroke="currentColor" stroke-width="1.7" stroke-linecap="round"/>
  </symbol>
  <symbol id="icon-facebook" viewBox="0 0 24 24">
    <path d="M13.5 22v-8h2.7l.5-3h-3.2V9.3c0-.9.3-1.5 1.7-1.5h1.6V5.1c-.3 0-1.2-.1-2.3-.1-2.3 0-3.9 1.4-3.9 3.9V11H8v3h2.6v8h2.9Z" fill="currentColor"/>
  </symbol>
  <symbol id="icon-instagram" viewBox="0 0 24 24">
    <rect x="3.5" y="3.5" width="17" height="17" rx="5" fill="none" stroke="currentColor" stroke-width="1.8"/>
    <circle cx="12" cy="12" r="4" fill="none" stroke="currentColor" stroke-width="1.8"/>
    <circle cx="17.5" cy="6.5" r="1.2" fill="currentColor"/>
  </symbol>
</svg>
